<?xml version="1.0" encoding="utf-8"?>
<!-- Generator: Adobe Illustrator 26.2.1, SVG Export Plug-In . SVG Version: 6.00 Build 0)  -->
<svg version="1.1" id="Layer_1" xmlns="http://www.w3.org/2000/svg" xmlns:xlink="http://www.w3.org/1999/xlink" x="0px" y="0px"
	 viewBox="0 0 40 40" style="enable-background:new 0 0 40 40;" xml:space="preserve">
<style type="text/css">
	.st0{fill:#8E8EDA;}
</style>
<g>
	<path id="path3370-1" class="st0" d="M18.07,1.93C12.05,7.95,6.02,13.97,0,20c6.02,6.03,12.04,12.05,18.07,18.07v-2.43
		C12.85,30.43,7.64,25.21,2.42,20C7.64,14.79,12.85,9.57,18.07,4.36V1.93z M21.93,1.93v2.43L37.57,20L21.93,35.64v2.43
		C27.96,32.05,33.98,26.02,40,20C33.98,13.98,27.96,7.95,21.93,1.93L21.93,1.93z"/>
	<path id="path960" class="st0" d="M21.18,7c-0.69,5.08-0.41,10.23-0.58,15.34c0.23-0.13,0.46-0.26,0.7-0.38
		c1.86-1.41,4.41-2.44,6.7-1.49c1.35,0.13,1.52,2.45,0.13,2.67c-1.29-0.02-1.7-1.96-3.11-1.77c-1.02-0.01-2.12,0.12-3.04,0.55
		c-0.51,0.31-0.97,0.67-1.4,1.08c0.15,2.12,0.44,4.71,0.76,7.05c0.09,0.97-0.26,2.02-1.47,1.55c-0.26-0.14-0.43-0.33-0.56-0.55
		c-0.19-0.96-0.14-1.75-0.66-2.58c-0.31-0.69-0.68-1.36-1.1-1.99c-0.84,0.94-1.78,1.77-3,2.26c-0.2,0.09-0.4,0.16-0.6,0.23
		c1.07-1.03,2.01-2.21,3-3.35c-1.07-1.4-2.39-2.61-3.84-3.61c-0.77-0.49-2.17-1.1-1.1-2.14c0.93-1.06,1.92,0.27,2.72,0.77
		c1.33,0.99,2.63,2.09,3.72,3.36c0.06-0.06,0.12-0.11,0.18-0.17c-0.03-0.48-0.04-0.95-0.01-1.43c0.07-2.85,0.24-5.7,0.15-8.55
		c0-1.48,0.06-2.96,0.16-4.43C18.94,7.89,20.18,7.38,21.18,7L21.18,7z"/>
</g>
</svg>
